<svg width="317" height="112" viewBox="0 0 317 112" fill="none" xmlns="http://www.w3.org/2000/svg">
<path d="M64.2905 45.9479V59.6486C64.2905 69.6801 72.4389 77.8121 82.4905 77.8121H89.6452C99.6968 77.8121 107.845 69.6801 107.845 59.6486V45.3677C107.845 45.0473 108.106 44.7876 108.427 44.7876C108.748 44.7876 109.008 45.0473 109.008 45.3677V59.6486C109.008 70.3209 100.339 78.9725 89.6452 78.9725H82.4905C71.7968 78.9725 63.1278 70.3209 63.1278 59.6486V45.3677C63.1278 45.0473 63.3881 44.7876 63.7091 44.7876H82.4905C82.8115 44.7876 83.0718 45.0473 83.0718 45.3677C83.0718 45.6881 82.8115 45.9479 82.4905 45.9479H64.2905Z" fill="#E8E8E8"/>
<path d="M87.2654 16.5632C87.4227 16.2914 87.7723 16.1976 88.0461 16.3537C88.32 16.5098 88.4145 16.8567 88.2572 17.1286C86.0117 21.0091 86.0117 24.9321 88.2619 28.9741C90.7051 33.3629 90.7051 37.5904 88.2491 41.574C88.0843 41.8414 87.7322 41.9255 87.4629 41.7619C87.1935 41.5983 87.1087 41.2489 87.2735 40.9815C89.5096 37.3547 89.5096 33.5626 87.2608 29.5231C84.8189 25.1367 84.8189 20.7912 87.2654 16.5632Z" fill="#E8E8E8"/>
<path d="M63.5347 63.0418C63.8482 63.0418 64.1023 63.2978 64.1023 63.6136C64.1023 63.9295 63.8482 64.1855 63.5347 64.1855H59.8622C56.4086 64.1855 54.2354 61.467 54.2354 57.7016V55.4494C54.2354 51.684 56.4086 48.9654 59.8622 48.9654L63.5347 48.9654C63.8482 48.9654 64.1023 49.2215 64.1023 49.5373C64.1023 49.8531 63.8482 50.1091 63.5347 50.1091H59.8622C57.0962 50.1091 55.3705 52.2678 55.3705 55.4494V57.7016C55.3705 60.8832 57.0962 63.0418 59.8622 63.0418H63.5347Z" fill="#E8E8E8"/>
<path d="M316.174 79.1034H0.544052C-0.181351 79.1034 -0.181351 77.9683 0.544052 77.9683H316.174C316.899 77.9683 316.899 79.1034 316.174 79.1034Z" fill="#E8E8E8"/>
<path d="M266.101 44.3588C267.327 43.512 268.257 42.2491 268.716 40.8047C269.697 37.7211 268.419 34.3315 265.71 32.747C262.896 31.3172 259.463 32.1181 257.526 34.6628C256.614 35.861 256.111 37.3604 256.111 38.8817C256.112 39.1952 255.856 39.4493 255.54 39.4494C255.224 39.4494 254.968 39.1954 254.968 38.8819C254.967 37.1144 255.551 35.3746 256.613 33.9787C258.883 30.9961 262.92 30.0544 266.261 31.7527C269.462 33.6238 270.947 37.5624 269.807 41.1464C269.272 42.8288 268.188 44.2997 266.754 45.2906L258.267 51.1509C257.803 51.4711 257.202 51.0012 257.408 50.4788L262.045 38.6756C262.16 38.3836 262.491 38.2392 262.786 38.353C263.08 38.4669 263.225 38.796 263.111 39.088L259.155 49.1546L266.101 44.3588Z" fill="#E8E8E8"/>
<path d="M248.602 49.983C248.918 49.983 249.174 50.2371 249.174 50.5505C249.174 50.864 248.918 51.1181 248.602 51.1181H243.174C242.797 51.1181 242.44 51.2907 242.207 51.5861C241.974 51.8818 241.89 52.268 241.98 52.6332L247.987 76.9926C248.122 77.54 248.615 77.9246 249.181 77.9246H271.395C271.961 77.9246 272.454 77.5401 272.589 76.9926L278.596 52.6332C278.686 52.2681 278.602 51.8819 278.369 51.5863C278.135 51.2906 277.779 51.1181 277.401 51.1181H264.205C263.889 51.1181 263.633 50.864 263.633 50.5505C263.633 50.2371 263.889 49.983 264.205 49.983H277.401C278.131 49.983 278.819 50.3162 279.269 50.8865C279.719 51.4563 279.88 52.1999 279.707 52.9031L273.7 77.2625C273.44 78.3176 272.488 79.0598 271.395 79.0598H249.181C248.088 79.0598 247.136 78.3176 246.876 77.2625L240.869 52.903C240.696 52.1997 240.857 51.4561 241.306 50.8863C241.756 50.3162 242.445 49.983 243.174 49.983H248.602Z" fill="#E8E8E8"/>
<path d="M220.231 61.3343C220.546 61.3343 220.802 61.5884 220.802 61.9018C220.802 62.2153 220.546 62.4694 220.231 62.4694H216.949C216.788 62.4694 216.636 62.5413 216.539 62.6628C216.443 62.7818 216.409 62.9358 216.446 63.0813L220.078 77.5446C220.133 77.7662 220.34 77.9246 220.581 77.9246H234.012C234.253 77.9246 234.46 77.7662 234.515 77.5447L238.147 63.0813C238.184 62.9359 238.15 62.7819 238.054 62.6629C237.957 62.5413 237.805 62.4694 237.644 62.4694H229.665C229.349 62.4694 229.093 62.2153 229.093 61.9018C229.093 61.5884 229.349 61.3343 229.665 61.3343H237.644C238.152 61.3343 238.633 61.5627 238.948 61.9552C239.266 62.3501 239.38 62.867 239.257 63.3558L235.625 77.8192C235.442 78.5492 234.775 79.0598 234.012 79.0598H220.581C219.818 79.0598 219.151 78.5492 218.968 77.8192L215.336 63.3557C215.213 62.8668 215.327 62.35 215.645 61.9551C215.96 61.5627 216.441 61.3343 216.949 61.3343H220.231Z" fill="#E8E8E8"/>
<path fill-rule="evenodd" clip-rule="evenodd" d="M194.226 82.0699V8.06818C194.226 4.56493 191.327 1.72368 187.753 1.72368H140.248C136.674 1.72368 133.775 4.56493 133.775 8.06818V46.8902V84.1833V103.504C133.775 107.644 137.199 111 141.423 111H186.577C190.801 111 194.226 107.644 194.226 103.504V92.9274V82.0699Z" fill="white"/>
<path d="M192.651 15.3518V95.9373H135.224V15.3518H192.651Z" fill="#FFE600" stroke="white" stroke-width="3"/>
<path fill-rule="evenodd" clip-rule="evenodd" d="M186.239 107.494H141.374C137.177 107.494 133.775 104.237 133.775 100.219V103.725C133.775 107.743 137.177 111 141.374 111H186.239C190.436 111 193.838 107.743 193.838 103.725V100.219C193.838 104.237 190.436 107.494 186.239 107.494" fill="#EEEEEE" style="mix-blend-mode:multiply"/>
<path fill-rule="evenodd" clip-rule="evenodd" d="M194.174 82.0699V8.06818C194.174 4.56493 191.275 1.72368 187.702 1.72368H140.197C136.623 1.72368 133.724 4.56493 133.724 8.06818V46.8902V84.1833V103.504C133.724 107.644 137.148 111 141.372 111H186.526C190.75 111 194.174 107.644 194.174 103.504V92.9274V82.0699Z" stroke="#333333" stroke-width="1.5"/>
<path d="M133.775 97.4373H193.838" stroke="#333333" stroke-width="1.5"/>
<path d="M193.838 13.7363H133.775" stroke="#333333" stroke-width="1.5"/>
<path d="M160.658 8.31126H169.568" stroke="#333333" stroke-width="1.5"/>
<path d="M157.087 8.31126H158.695" stroke="#333333" stroke-width="1.5"/>
<path d="M160.125 103.637H167.875" stroke="#333333" stroke-width="1.5"/>
<path d="M140 31C140 29.3431 141.343 28 143 28H185C186.657 28 188 29.3431 188 31V93H140V31Z" fill="#FAFAFA"/>
<rect x="122" y="82" width="83" height="15" rx="2" fill="#3483FA"/>
<path d="M150.048 93H151.335V90.261H153.271C154.8 90.261 155.669 89.205 155.669 87.962C155.669 86.719 154.811 85.663 153.271 85.663H150.048V93ZM154.349 87.962C154.349 88.666 153.821 89.128 153.095 89.128H151.335V86.796H153.095C153.821 86.796 154.349 87.258 154.349 87.962ZM159.737 93H160.892V89.48C160.892 88.05 159.858 87.555 158.681 87.555C157.834 87.555 157.064 87.83 156.448 88.413L156.921 89.216C157.383 88.765 157.9 88.545 158.494 88.545C159.231 88.545 159.737 88.919 159.737 89.535V90.327C159.352 89.876 158.736 89.645 158.021 89.645C157.152 89.645 156.173 90.151 156.173 91.372C156.173 92.549 157.152 93.132 158.021 93.132C158.725 93.132 159.341 92.879 159.737 92.428V93ZM159.737 91.79C159.473 92.153 158.978 92.34 158.472 92.34C157.823 92.34 157.339 91.966 157.339 91.394C157.339 90.811 157.823 90.437 158.472 90.437C158.978 90.437 159.473 90.624 159.737 90.987V91.79ZM162.324 94.364C162.973 94.958 163.644 95.156 164.546 95.156C165.855 95.156 167.274 94.639 167.274 92.725V87.687H166.119V88.424C165.69 87.863 165.085 87.555 164.414 87.555C163.05 87.555 162.06 88.567 162.06 90.283C162.06 92.032 163.061 93.011 164.414 93.011C165.107 93.011 165.712 92.659 166.119 92.131V92.769C166.119 93.858 165.305 94.21 164.546 94.21C163.842 94.21 163.292 94.023 162.863 93.528L162.324 94.364ZM166.119 91.273C165.866 91.669 165.294 91.988 164.755 91.988C163.842 91.988 163.259 91.306 163.259 90.283C163.259 89.26 163.842 88.578 164.755 88.578C165.294 88.578 165.866 88.897 166.119 89.293V91.273ZM172.015 93H173.17V89.48C173.17 88.05 172.136 87.555 170.959 87.555C170.112 87.555 169.342 87.83 168.726 88.413L169.199 89.216C169.661 88.765 170.178 88.545 170.772 88.545C171.509 88.545 172.015 88.919 172.015 89.535V90.327C171.63 89.876 171.014 89.645 170.299 89.645C169.43 89.645 168.451 90.151 168.451 91.372C168.451 92.549 169.43 93.132 170.299 93.132C171.003 93.132 171.619 92.879 172.015 92.428V93ZM172.015 91.79C171.751 92.153 171.256 92.34 170.75 92.34C170.101 92.34 169.617 91.966 169.617 91.394C169.617 90.811 170.101 90.437 170.75 90.437C171.256 90.437 171.751 90.624 172.015 90.987V91.79ZM174.668 93H175.823V89.381C176.054 89.007 176.703 88.677 177.187 88.677C177.33 88.677 177.451 88.688 177.55 88.71V87.566C176.857 87.566 176.219 87.962 175.823 88.468V87.687H174.668V93Z" fill="white"/>
<rect x="122" y="82" width="83" height="15" rx="2" stroke="#333333" stroke-width="1.5"/>
<rect x="157" y="31" width="14" height="2" rx="1" fill="#C4C4C4"/>
</svg>
